<?xml version="1.0" encoding="UTF-8"?>
<svg width="120px" height="104px" viewBox="0 0 120 104" version="1.1" xmlns="http://www.w3.org/2000/svg" xmlns:xlink="http://www.w3.org/1999/xlink">
    <!-- Generator: Sketch 48.2 (47327) - http://www.bohemiancoding.com/sketch -->
    <title>Page 1</title>
    <desc>Created with Sketch.</desc>
    <defs></defs>
    <g id="优惠券-空" stroke="none" stroke-width="1" fill="none" fill-rule="evenodd" transform="translate(-128.000000, -419.000000)">
        <g id="Page-1" transform="translate(128.000000, 419.000000)" fill="#DBDFE2">
            <path d="M116.374049,79.4857916 C116.374049,81.606375 114.686856,83.3360397 112.581033,83.4196361 C112.337334,82.7231995 111.951879,82.0490152 111.413208,81.4217411 C111.337203,81.3381446 111.246118,81.2581567 111.170113,81.1781687 C111.141159,81.1462938 111.107982,81.120433 111.08325,81.0915652 C110.813613,80.8161179 110.511402,80.5551045 110.180237,80.3043151 C110.078897,80.2249286 109.970318,80.145542 109.860533,80.0697639 C109.602357,79.8875357 109.323068,79.7173357 109.028096,79.5543527 C108.904437,79.4815817 108.798875,79.3979853 108.667977,79.3294241 C108.627562,79.3077733 108.576892,79.2969478 108.537079,79.2746955 C108.53346,79.2722899 108.529841,79.2722899 108.526221,79.26808 C107.83554,76.947226 106.810075,71.9434671 108.398943,69.5726958 C111.42467,65.0224026 111.632176,53.9630131 108.842306,45.8992633 C108.089494,43.7269584 109.260937,38.3870095 110.373869,34.7857465 L111.086266,34.7857465 C112.090016,34.7857465 112.904356,33.9738385 112.904356,32.9730868 C112.904356,31.972335 112.090016,31.160427 111.086266,31.160427 L109.046796,31.160427 L89.0882211,31.160427 L87.516846,31.160427 C86.5130962,31.160427 85.6981528,31.972335 85.6981528,32.9730868 C85.6981528,33.6767403 86.1095454,34.2673282 86.6952672,34.5686363 C85.8767044,37.7994287 85.000233,44.1774169 87.848011,52.1756127 L88.0446591,52.7228988 C89.2299766,55.9969929 90.57213,59.7101188 87.3895676,67.9115922 C84.8078074,74.5578109 86.1602154,78.8909938 87.5349424,81.2112464 C86.3242899,81.8499474 85.098557,82.581266 83.8692049,83.4154263 L83.8655856,83.4196361 L42.0404667,83.4196361 C41.9240462,83.3396482 41.8070225,83.2849196 41.6875859,83.2061344 C40.6910747,82.5379642 39.6945635,81.9401594 38.7089102,81.4067058 C38.5888704,81.3417531 38.4688306,81.2623666 38.3457747,81.1968125 C39.7198985,78.87235 41.0692905,74.5433769 38.4911496,67.9079838 C35.3085872,59.7215456 36.6501374,56.0114269 37.8288195,52.7343257 L38.0290869,52.1792212 C40.8762617,44.180424 40.0003935,37.8060442 39.1818307,34.5758533 C39.7711718,34.2745452 40.1819612,33.6839573 40.1819612,32.9803037 C40.1819612,31.9795519 39.3670178,31.167644 38.363268,31.167644 L36.7961154,31.167644 L16.8375405,31.167644 L14.7974673,31.167644 C13.7937176,31.167644 12.9793773,31.9795519 12.9793773,32.9803037 C12.9793773,33.9810555 13.7937176,34.7935649 14.7974673,34.7935649 L15.5104675,34.7935649 C16.6191766,38.393625 17.7942395,43.7347767 17.0414271,45.9064802 C14.2955924,53.821681 14.5067177,65.1017892 17.4847902,69.5793114 C19.0597846,71.9398587 18.0415576,76.9544429 17.3544957,79.2746955 C17.310461,79.3005563 17.2525524,79.3149902 17.2085177,79.3372425 C17.0631429,79.4130206 16.9473256,79.5032326 16.8122054,79.5796121 C16.5395523,79.7353781 16.2783602,79.8917456 16.0340581,80.062547 C15.9140183,80.145542 15.7975978,80.2321455 15.6811773,80.3199519 C15.3650926,80.5623215 15.0737398,80.8161179 14.8125477,81.0843482 C14.7757516,81.120433 14.7359394,81.1571192 14.6991433,81.193204 C14.6231382,81.2695835 14.5320527,81.345963 14.4632862,81.425951 C14.2413031,81.6827545 14.0663707,81.9545933 13.8920416,82.223425 C13.8890255,82.2336491 13.8811837,82.2414674 13.8739451,82.2486844 C13.6338656,82.6323861 13.4305821,83.0281161 13.2888266,83.4304616 L7.58603192,83.4304616 C5.40360003,83.4304616 3.63256077,81.6647121 3.63256077,79.4894001 L3.63256077,7.56698241 C3.63256077,5.39527891 5.40782253,3.62592091 7.58603192,3.62592091 L112.420578,3.62592091 C114.59939,3.62592091 116.370429,5.39527891 116.370429,7.56698241 L116.370429,79.4857916 L116.374049,79.4857916 Z M90.782652,69.228086 C94.4556282,59.757029 92.7973902,55.177868 91.4660946,51.4942114 L91.2778916,50.9685762 C88.5386922,43.2740941 89.7101358,37.1865885 90.3935784,34.7899564 L106.577234,34.7899564 C105.627773,38.0965268 104.289842,43.8833258 105.402171,47.0882574 C107.976693,54.5325515 107.486279,64.3843031 105.365978,67.5675838 C103.380194,70.5403699 103.809683,74.9745903 104.442456,77.9810555 C104.300097,77.9515862 104.169803,77.9197113 104.023825,77.9004661 C103.907404,77.8830251 103.783745,77.8752067 103.660086,77.8577657 C102.907274,77.7561269 102.114046,77.7013983 101.292467,77.6833559 C101.183285,77.6797474 101.078929,77.6725304 100.969144,77.6725304 C97.928337,77.6580965 94.488805,78.2601113 90.8664989,79.6920764 C89.9206578,78.2998045 88.5386922,75.007668 90.782652,69.228086 Z M19.3071027,34.7899564 L35.4907581,34.7899564 C36.1735975,37.1865885 37.3414218,43.2777026 34.6028256,50.9685762 L34.4067808,51.5050368 C33.0797077,55.1850849 31.4281051,59.764246 35.0974619,69.228086 C37.3414218,75.0040595 35.958853,78.2925876 35.0172343,79.6920764 C35.0172343,79.6884679 35.0142183,79.6884679 35.0099958,79.6884679 C34.8465245,79.6235153 34.6866725,79.5651782 34.5262173,79.5032326 C32.3552465,78.6877161 30.260884,78.1729063 28.2787195,77.904676 C28.1074064,77.8830251 27.9366966,77.8577657 27.7659867,77.8361149 C26.8346228,77.7308675 25.9328163,77.6725304 25.0599642,77.668922 C24.8639194,77.668922 24.6745098,77.6797474 24.478465,77.6875658 C23.754607,77.7050068 23.0524647,77.7561269 22.3841025,77.8397233 C22.2049476,77.8613742 22.0233799,77.8758081 21.8484475,77.9010675 C21.7072952,77.9227184 21.5757944,77.9588032 21.4376581,77.9810555 C22.0704307,74.9781988 22.4999197,70.5409713 20.5177552,67.5705909 C18.3938352,64.3728763 17.8991989,54.5253345 20.4815623,47.0888588 C21.5908747,43.8833258 20.2523406,38.0965268 19.3071027,34.7899564 Z M112.4248,0 L7.58965121,0 C3.40333907,0 0,3.39377537 0,7.56698241 L0,79.4857916 C0,83.6553902 3.40756157,87.0521726 7.58965121,87.0521726 L13.2918427,87.0521726 C13.6374849,88.1154714 14.2702574,89.1667418 15.2197178,90.1488498 C15.4519556,90.3888137 15.750547,90.5626222 16.0738703,90.6492257 C25.5805388,93.1041949 27.9403159,96.1575703 28.5007026,97.7561269 C29.1226173,99.5290934 28.0929293,100.953842 28.0277821,101.041046 C27.4167253,101.827695 27.5548615,102.955345 28.3336121,103.572395 C29.1226173,104.199669 30.260884,104.068561 30.8900373,103.278304 C31.7514283,102.190347 32.9482069,99.5760036 31.9661728,96.6465193 C30.6173841,92.6362953 25.7548679,89.4818824 17.517967,87.2771012 C16.8339212,86.4651932 16.6270184,85.7982258 16.6270184,85.2545482 L16.6270184,85.2431213 C16.6300345,84.5184183 17.0884779,83.7895053 17.9142793,83.1580214 C17.9396143,83.1405804 17.9685686,83.1219366 17.9908876,83.1044956 C18.2267446,82.9300857 18.4921592,82.7628928 18.7835121,82.6107352 C18.8522786,82.5716434 18.9216483,82.5385656 18.991018,82.5054879 C19.3396763,82.3316794 19.7396079,82.1975643 20.1359201,82.0562321 C20.7686927,81.9040746 21.9111819,81.7013983 23.7256526,81.7013983 C26.9076118,81.7013983 30.6204002,82.3250639 34.755439,83.5393174 C35.4467234,83.8400241 36.1374046,84.1521576 36.8359276,84.5220268 C37.0464496,84.6344911 37.2575749,84.7541723 37.4687001,84.877462 C38.3451715,85.3664111 39.2216429,85.9034732 40.1053529,86.5090964 C40.181358,86.563825 40.254347,86.5993084 40.3309553,86.6534356 C54.2374741,96.3891144 52.6847987,101.30206 52.6956565,101.30206 C52.2263553,102.186739 52.5647589,103.285521 53.4520882,103.753421 C53.721122,103.894753 54.0118717,103.963314 54.299002,103.963314 C54.9540935,103.963314 55.5832468,103.611487 55.90657,102.99564 C56.4778146,101.918508 58.3797515,96.4877462 46.844471,87.0491655 L79.0211658,87.0491655 C67.482266,96.4907533 69.3811868,101.922117 69.9518282,102.99564 C70.2866126,103.622914 70.9447201,104 71.6215274,104 C71.8935773,104 72.1740723,103.934446 72.4352644,103.796722 C73.3231969,103.328823 73.6863323,102.281161 73.2170311,101.396482 C73.1989346,101.349571 71.5666348,96.4366261 85.5425233,86.6534356 C86.5167155,85.9720343 87.4836692,85.3850549 88.4518293,84.8479928 C88.6261584,84.7505638 88.8041068,84.648925 88.978436,84.5545031 C89.7059133,84.1702 90.4231359,83.8436325 91.1427714,83.5327018 C95.2633331,82.3250639 98.9688829,81.7013983 102.143603,81.7013983 C103.961694,81.7013983 105.100563,81.9076831 105.726097,82.0532251 C106.126029,82.1945572 106.536818,82.3316794 106.882461,82.5096978 C106.951227,82.5421741 107.012755,82.5752518 107.079109,82.6041197 C107.384335,82.7665013 107.671466,82.9409111 107.915165,83.1297549 C107.926023,83.1369719 107.937484,83.1441888 107.947738,83.1514058 C108.780778,83.7822884 109.238618,84.5148098 109.242841,85.2431213 C109.242841,85.2545482 109.249476,85.2617651 109.249476,85.2725906 C109.242841,85.8090513 109.027493,86.4724102 108.354908,87.2771012 C100.114388,89.4818824 95.2554913,92.6362953 93.9067026,96.6465193 C92.920446,99.5760036 94.1208439,102.190347 94.9828381,103.278304 C95.6083721,104.068561 96.7502581,104.196061 97.5362473,103.572395 C98.3252525,102.952338 98.4561501,101.813863 97.8306162,101.026613 C97.8191551,101.012179 96.7502581,99.5910389 97.3540763,97.7994287 C97.8921441,96.1894452 100.230809,93.1186288 109.795386,90.6462186 C110.122932,90.5626222 110.417301,90.3888137 110.650141,90.1458427 C111.602618,89.1595249 112.239613,88.100436 112.581033,87.0311231 C116.687117,86.9403097 119.999974,83.5976545 119.999974,79.4815817 L119.999974,7.56698241 C120.010832,3.39377537 116.60689,0 112.4248,0 Z" id="Fill-1"></path>
            <path d="M56,26.2607898 C56,25.3024965 55.177993,24.5244591 54.1641843,24.5244591 C47.9425044,24.5244591 42.6670459,20.8859393 40.131002,19.136363 C39.5470726,18.7332348 39.0879664,18.4210984 38.7725593,18.243722 C37.8981874,17.7542092 36.7753866,18.024881 36.2578267,18.8512938 C35.7402667,19.6736753 36.0264469,20.7402373 36.8965566,21.2297501 C37.1425498,21.3719967 37.5054507,21.6219362 37.9682102,21.9450146 C40.8172257,23.9099766 46.7460275,28 54.1641843,28 C55.177993,27.9965446 56,27.2190831 56,26.2607898" id="Fill-4"></path>
            <path d="M82.2245274,18.2462839 C81.9122175,18.4237394 81.4507539,18.736015 80.8632704,19.139323 C78.3306993,20.8862229 73.056133,24.5263657 66.8348965,24.5263657 C65.821868,24.5263657 65,25.3047502 65,26.2634709 C65,27.2216155 65.821868,28 66.8348965,28 C74.2524076,28 80.1802068,23.9116091 83.0281317,21.9457706 C83.4908129,21.626005 83.8542612,21.3690402 84.1038656,21.230187 C84.9738281,20.7404558 85.2593512,19.6739942 84.7424875,18.8506697 C84.2207535,18.0238883 83.0944899,17.7530958 82.2245274,18.2462839" id="Fill-6"></path>
            <path d="M72.9150889,67.5691899 L60.5393442,62.1569397 C60.0311865,61.9351944 59.4504348,61.9494622 58.9538678,62.1932037 L48.0086511,67.6054538 C47.1009216,68.0531059 46.7397819,69.1321079 47.199747,70.0173056 C47.6554418,70.8995309 48.7626522,71.243147 49.6709917,70.8056013 L59.8329257,65.7809596 L71.4028164,70.8418653 C71.6462197,70.9494682 71.9073139,71 72.1574276,71 C72.8559156,71 73.5293924,70.6088246 73.834409,69.9423997 C74.257162,69.0387727 73.8417294,67.9776055 72.9150889,67.5691899" id="Fill-8"></path>
        </g>
    </g>
</svg>
